<?xml version="1.0" encoding="UTF-8" standalone="no"?>
<svg
   xmlns:dc="http://purl.org/dc/elements/1.1/"
   xmlns:cc="http://creativecommons.org/ns#"
   xmlns:rdf="http://www.w3.org/1999/02/22-rdf-syntax-ns#"
   xmlns:svg="http://www.w3.org/2000/svg"
   xmlns="http://www.w3.org/2000/svg"
   viewBox="0 0 1338.8927 211.53706"
   height="211.53706"
   width="1338.8927"
   xml:space="preserve"
   version="1.1"
   id="svg3336"><metadata
     id="metadata3342"><rdf:RDF><cc:Work
         rdf:about=""><dc:format>image/svg+xml</dc:format><dc:type
           rdf:resource="http://purl.org/dc/dcmitype/StillImage" /><dc:title></dc:title></cc:Work></rdf:RDF></metadata><defs
     id="defs3340"><clipPath
       id="clipPath3352"
       clipPathUnits="userSpaceOnUse"><path
         id="path3354"
         d="m 0,0 4950.1,0 0,1008.59 L 0,1008.59 0,0 Z" /></clipPath><clipPath
       id="clipPath3410"
       clipPathUnits="userSpaceOnUse"><path
         style="clip-rule:evenodd"
         id="path3412"
         d="m 78.03,139.47 170.05,0 0,14.28 -170.05,0 0,-14.28 z" /></clipPath><clipPath
       id="clipPath3418"
       clipPathUnits="userSpaceOnUse"><path
         style="clip-rule:evenodd"
         id="path3420"
         d="m 78.024,139.46 170.06,0 0,14.28 -170.06,0 0,-14.28 z" /></clipPath><clipPath
       id="clipPath3430"
       clipPathUnits="userSpaceOnUse"><path
         style="clip-rule:evenodd"
         id="path3432"
         d="m 78.024,139.46 170.06,0 0,14.28 -170.06,0 0,-14.28 z" /></clipPath><clipPath
       id="clipPath3438"
       clipPathUnits="userSpaceOnUse"><path
         style="clip-rule:evenodd"
         id="path3440"
         d="m 248.09,139.47 78,0 0,14.28 -78,0 0,-14.28 z" /></clipPath><clipPath
       id="clipPath3446"
       clipPathUnits="userSpaceOnUse"><path
         style="clip-rule:evenodd"
         id="path3448"
         d="m 248.09,139.46 78,0 0,14.28 -78,0 0,-14.28 z" /></clipPath><clipPath
       id="clipPath3454"
       clipPathUnits="userSpaceOnUse"><path
         style="clip-rule:evenodd"
         id="path3456"
         d="m 78.03,102.63 170.06,0 0,36.834 -170.06,0 0,-36.834 z" /></clipPath><clipPath
       id="clipPath3466"
       clipPathUnits="userSpaceOnUse"><path
         style="clip-rule:evenodd"
         id="path3468"
         d="m 78.03,102.63 170.06,0 0,36.834 -170.06,0 0,-36.834 z" /></clipPath><clipPath
       id="clipPath3474"
       clipPathUnits="userSpaceOnUse"><path
         style="clip-rule:evenodd"
         id="path3476"
         d="m 78.03,102.63 170.05,0 0,36.84 -170.05,0 0,-36.84 z" /></clipPath><clipPath
       id="clipPath3486"
       clipPathUnits="userSpaceOnUse"><path
         style="clip-rule:evenodd"
         id="path3488"
         d="m 78.03,102.63 170.05,0 0,36.84 -170.05,0 0,-36.84 z" /></clipPath><clipPath
       id="clipPath3498"
       clipPathUnits="userSpaceOnUse"><path
         style="clip-rule:evenodd"
         id="path3500"
         d="m 78.03,102.63 170.05,0 0,36.84 -170.05,0 0,-36.84 z" /></clipPath><clipPath
       id="clipPath3506"
       clipPathUnits="userSpaceOnUse"><path
         style="clip-rule:evenodd"
         id="path3508"
         d="m 78.03,102.63 170.05,0 0,36.84 -170.05,0 0,-36.84 z" /></clipPath><clipPath
       id="clipPath3518"
       clipPathUnits="userSpaceOnUse"><path
         style="clip-rule:evenodd"
         id="path3520"
         d="m 78.03,102.63 170.05,0 0,36.84 -170.05,0 0,-36.84 z" /></clipPath><clipPath
       id="clipPath3530"
       clipPathUnits="userSpaceOnUse"><path
         style="clip-rule:evenodd"
         id="path3532"
         d="m 78.03,102.63 170.05,0 0,36.84 -170.05,0 0,-36.84 z" /></clipPath><clipPath
       id="clipPath3538"
       clipPathUnits="userSpaceOnUse"><path
         style="clip-rule:evenodd"
         id="path3540"
         d="m 248.09,102.63 78,0 0,36.84 -78,0 0,-36.84 z" /></clipPath><clipPath
       id="clipPath3546"
       clipPathUnits="userSpaceOnUse"><path
         style="clip-rule:evenodd"
         id="path3548"
         d="m 248.09,102.62 78,0 0,36.84 -78,0 0,-36.84 z" /></clipPath><clipPath
       id="clipPath3554"
       clipPathUnits="userSpaceOnUse"><path
         style="clip-rule:evenodd"
         id="path3556"
         d="m 78.03,88.35 170.05,0 0,14.28 -170.05,0 0,-14.28 z" /></clipPath><clipPath
       id="clipPath3562"
       clipPathUnits="userSpaceOnUse"><path
         style="clip-rule:evenodd"
         id="path3564"
         d="m 78.024,88.344 170.06,0 0,14.28 -170.06,0 0,-14.28 z" /></clipPath><clipPath
       id="clipPath3574"
       clipPathUnits="userSpaceOnUse"><path
         style="clip-rule:evenodd"
         id="path3576"
         d="m 78.024,88.344 170.06,0 0,14.28 -170.06,0 0,-14.28 z" /></clipPath><clipPath
       id="clipPath3586"
       clipPathUnits="userSpaceOnUse"><path
         style="clip-rule:evenodd"
         id="path3588"
         d="m 78.024,88.344 170.06,0 0,14.28 -170.06,0 0,-14.28 z" /></clipPath><clipPath
       id="clipPath3594"
       clipPathUnits="userSpaceOnUse"><path
         style="clip-rule:evenodd"
         id="path3596"
         d="m 78.024,88.344 170.06,0 0,14.28 -170.06,0 0,-14.28 z" /></clipPath><clipPath
       id="clipPath3606"
       clipPathUnits="userSpaceOnUse"><path
         style="clip-rule:evenodd"
         id="path3608"
         d="m 78.024,88.344 170.06,0 0,14.28 -170.06,0 0,-14.28 z" /></clipPath><clipPath
       id="clipPath3614"
       clipPathUnits="userSpaceOnUse"><path
         style="clip-rule:evenodd"
         id="path3616"
         d="m 248.09,88.35 78,0 0,14.28 -78,0 0,-14.28 z" /></clipPath><clipPath
       id="clipPath3622"
       clipPathUnits="userSpaceOnUse"><path
         style="clip-rule:evenodd"
         id="path3624"
         d="m 248.09,88.344 78,0 0,14.28 -78,0 0,-14.28 z" /></clipPath><clipPath
       id="clipPath3630"
       clipPathUnits="userSpaceOnUse"><path
         style="clip-rule:evenodd"
         id="path3632"
         d="m 78.03,74.07 170.05,0 0,14.28 -170.05,0 0,-14.28 z" /></clipPath><clipPath
       id="clipPath3638"
       clipPathUnits="userSpaceOnUse"><path
         style="clip-rule:evenodd"
         id="path3640"
         d="m 78.024,74.064 170.06,0 0,14.28 -170.06,0 0,-14.28 z" /></clipPath><clipPath
       id="clipPath3650"
       clipPathUnits="userSpaceOnUse"><path
         style="clip-rule:evenodd"
         id="path3652"
         d="m 78.024,74.064 170.06,0 0,14.28 -170.06,0 0,-14.28 z" /></clipPath><clipPath
       id="clipPath3658"
       clipPathUnits="userSpaceOnUse"><path
         style="clip-rule:evenodd"
         id="path3660"
         d="m 78.024,74.064 170.06,0 0,14.28 -170.06,0 0,-14.28 z" /></clipPath><clipPath
       id="clipPath3670"
       clipPathUnits="userSpaceOnUse"><path
         style="clip-rule:evenodd"
         id="path3672"
         d="m 78.024,74.064 170.06,0 0,14.28 -170.06,0 0,-14.28 z" /></clipPath><clipPath
       id="clipPath3682"
       clipPathUnits="userSpaceOnUse"><path
         style="clip-rule:evenodd"
         id="path3684"
         d="m 78.024,74.064 170.06,0 0,14.28 -170.06,0 0,-14.28 z" /></clipPath><clipPath
       id="clipPath3690"
       clipPathUnits="userSpaceOnUse"><path
         style="clip-rule:evenodd"
         id="path3692"
         d="m 78.024,74.064 170.06,0 0,14.28 -170.06,0 0,-14.28 z" /></clipPath><clipPath
       id="clipPath3702"
       clipPathUnits="userSpaceOnUse"><path
         style="clip-rule:evenodd"
         id="path3704"
         d="m 78.024,74.064 170.06,0 0,14.28 -170.06,0 0,-14.28 z" /></clipPath><clipPath
       id="clipPath3710"
       clipPathUnits="userSpaceOnUse"><path
         style="clip-rule:evenodd"
         id="path3712"
         d="m 248.09,74.07 78,0 0,14.28 -78,0 0,-14.28 z" /></clipPath><clipPath
       id="clipPath3718"
       clipPathUnits="userSpaceOnUse"><path
         style="clip-rule:evenodd"
         id="path3720"
         d="m 248.09,74.064 78,0 0,14.28 -78,0 0,-14.28 z" /></clipPath><clipPath
       id="clipPath3726"
       clipPathUnits="userSpaceOnUse"><path
         style="clip-rule:evenodd"
         id="path3728"
         d="m 78.03,59.79 170.05,0 0,14.28 -170.05,0 0,-14.28 z" /></clipPath><clipPath
       id="clipPath3734"
       clipPathUnits="userSpaceOnUse"><path
         style="clip-rule:evenodd"
         id="path3736"
         d="m 78.024,59.784 170.06,0 0,14.28 -170.06,0 0,-14.28 z" /></clipPath><clipPath
       id="clipPath3746"
       clipPathUnits="userSpaceOnUse"><path
         style="clip-rule:evenodd"
         id="path3748"
         d="m 78.024,59.784 170.06,0 0,14.28 -170.06,0 0,-14.28 z" /></clipPath><clipPath
       id="clipPath3758"
       clipPathUnits="userSpaceOnUse"><path
         style="clip-rule:evenodd"
         id="path3760"
         d="m 78.024,59.784 170.06,0 0,14.28 -170.06,0 0,-14.28 z" /></clipPath><clipPath
       id="clipPath3766"
       clipPathUnits="userSpaceOnUse"><path
         style="clip-rule:evenodd"
         id="path3768"
         d="m 248.09,59.79 78,0 0,14.28 -78,0 0,-14.28 z" /></clipPath><clipPath
       id="clipPath3774"
       clipPathUnits="userSpaceOnUse"><path
         style="clip-rule:evenodd"
         id="path3776"
         d="m 248.09,59.784 78,0 0,14.28 -78,0 0,-14.28 z" /></clipPath><clipPath
       id="clipPath3786"
       clipPathUnits="userSpaceOnUse"><path
         style="clip-rule:evenodd"
         id="path3788"
         d="m 248.09,59.784 78,0 0,14.28 -78,0 0,-14.28 z" /></clipPath><clipPath
       id="clipPath3798"
       clipPathUnits="userSpaceOnUse"><path
         style="clip-rule:evenodd"
         id="path3800"
         d="m 248.09,59.784 78,0 0,14.28 -78,0 0,-14.28 z" /></clipPath><clipPath
       id="clipPath3806"
       clipPathUnits="userSpaceOnUse"><path
         style="clip-rule:evenodd"
         id="path3808"
         d="m 248.09,59.784 78,0 0,14.28 -78,0 0,-14.28 z" /></clipPath><clipPath
       id="clipPath3818"
       clipPathUnits="userSpaceOnUse"><path
         style="clip-rule:evenodd"
         id="path3820"
         d="m 248.09,59.784 78,0 0,14.28 -78,0 0,-14.28 z" /></clipPath><clipPath
       id="clipPath3830"
       clipPathUnits="userSpaceOnUse"><path
         style="clip-rule:evenodd"
         id="path3832"
         d="m 248.09,59.784 78,0 0,14.28 -78,0 0,-14.28 z" /></clipPath><clipPath
       id="clipPath3842"
       clipPathUnits="userSpaceOnUse"><path
         id="path3844"
         d="m 0,0 414.73,0 0,147.58 L 0,147.58 0,0 Z" /></clipPath><clipPath
       id="clipPath3856"
       clipPathUnits="userSpaceOnUse"><path
         style="clip-rule:evenodd"
         id="path3858"
         d="m 0,147.35 0,-147.97065 415.09,0 0,147.97065" /></clipPath><clipPath
       id="clipPath3866"
       clipPathUnits="userSpaceOnUse"><path
         id="path3868"
         d="m 0,147.58 0,-148.20065 415.32,0 0,148.20065" /></clipPath></defs><g
     transform="matrix(1.25,0,0,-1.25,-90.884447,1139.9873)"
     id="g3344"><path
       d="m 98.105759,911.70032 114.700941,-8e-5 0,-33.61799 -85.60158,0 -5.13024,-0.5696 -3.4303,-1.7128 -2.28179,-3.42176 -0.56665,-5.69672 0,-21.6436 73.0441,0 0,-33.6256 -73.0441,0 0,-66.66 -42.799031,8e-5 0,141.30168 0.570004,7.97912 2.28001,6.2664 3.999343,5.13456 5.130231,3.41424 6.279505,2.28248 6.849581,0.56959 z"
       style="fill:#00c800;fill-opacity:1;fill-rule:evenodd;stroke:#00c800;stroke-width:0.57910341;stroke-linecap:butt;stroke-linejoin:round;stroke-miterlimit:10;stroke-dasharray:none;stroke-opacity:1"
       id="path3378" /><path
       d="m 234.48757,911.70024 42.79889,0 0,-122.50143 0.57048,-5.12704 1.71895,-3.42144 3.4189,-1.712 5.70829,-0.5704 62.19794,0 0,-33.61576 -91.30606,0 -7.41964,0.57039 -6.26733,2.28241 -4.5712,3.41383 -3.98934,4.56457 -2.2894,6.83711 -0.57049,7.97841 0,141.30127 z"
       style="fill:#00c800;fill-opacity:1;fill-rule:evenodd;stroke:#00c800;stroke-width:0.57910341;stroke-linecap:butt;stroke-linejoin:round;stroke-miterlimit:10;stroke-dasharray:none;stroke-opacity:1"
       id="path3380" /><path
       d="m 441.06621,911.70024 50.78516,0 35.37926,-52.42472 35.37919,52.42464 51.36325,0 -61.6351,-82.61703 63.34648,-84.33112 -50.78516,0 -37.66866,54.69696 -37.08679,-54.69696 -51.35949,8e-5 63.90559,84.33104 -61.62373,82.61711 z"
       style="fill:#00c800;fill-opacity:1;fill-rule:evenodd;stroke:#00c800;stroke-width:0.57910341;stroke-linecap:butt;stroke-linejoin:round;stroke-miterlimit:10;stroke-dasharray:none;stroke-opacity:1"
       id="path3382" /><path
       d="m 673.32263,813.12473 0,-23.92601 0.56616,-6.26639 1.71137,-3.42329 3.41883,-1.71167 6.28262,-0.5616 39.3761,0 6.84926,0.5616 5.1302,1.71159 4.00076,3.99304 1.70753,4.55737 1.14089,7.40568 -1.14089,6.83984 -1.70753,5.1232 -3.43027,3.4256 -5.1302,1.70136 -6.27886,0.5696 -52.49645,0 z m 10.26808,66.08912 -5.13788,-0.5584 -2.85219,-1.7128 -1.71137,-3.42185 -0.56616,-5.12695 0,-23.92608 51.35556,0 6.27878,0.5696 4.55979,1.70136 3.43036,3.4256 1.71129,5.1232 0.57017,6.83983 -0.57017,6.26641 -1.71129,4.55352 -3.43036,3.42559 -4.55979,2.28249 -6.27878,0.5584 -41.08748,0 z m -27.9596,32.48631 87.30524,0 11.40905,-1.14311 9.13096,-2.85216 7.41959,-4.55361 6.27885,-6.26631 4.00068,-8.5488 2.27802,-10.25408 0.57016,-12.54024 -0.57016,-8.54128 -1.70753,-7.97912 -2.85979,-6.836 -4.55988,-5.12704 -6.28254,-4.56113 -8.55671,-2.27487 0,-1.13936 9.69768,-2.28249 7.41959,-3.98384 5.14165,-5.69671 2.84842,-7.40944 2.28186,-8.54888 0.56616,-10.25024 -0.56616,-10.2612 -1.71138,-9.11968 -2.28185,-7.40792 -3.99684,-6.8372 -5.70077,-5.12544 -7.41966,-3.98465 -9.13096,-2.85288 -11.41658,-0.57039 -89.5871,0 -7.41966,0.57039 -6.27878,2.28241 -5.13781,3.41383 -3.42274,4.56457 -2.27802,6.83711 -1.14081,7.97841 0,115.65479 1.14081,7.97921 2.27802,6.26632 3.42274,5.13464 5.13781,3.41416 6.27878,2.28248 7.41966,0.56959 z"
       style="fill:#00c800;fill-opacity:1;fill-rule:evenodd;stroke:#00c800;stroke-width:0.57910341;stroke-linecap:butt;stroke-linejoin:round;stroke-miterlimit:10;stroke-dasharray:none;stroke-opacity:1"
       id="path3384" /><path
       d="m 813.69496,911.70016 42.80646,0 0,-101.42 1.13704,-10.83127 2.85235,-8.53744 4.56732,-6.27776 6.84157,-5.12473 8.56056,-2.27295 10.8461,-1.14088 10.84233,1.14088 8.55679,2.27295 6.8491,5.12473 5.13028,6.27776 2.28947,8.53744 1.14089,10.83127 0,101.41992 42.79885,0 0,-103.12895 -0.57016,-14.24552 -2.8485,-11.96296 -4.00069,-10.26168 -5.70837,-8.53928 -7.41197,-6.83761 -8.56056,-5.13495 -10.27569,-3.98424 -11.41282,-2.85296 -12.55739,-1.70216 -14.26132,0 -14.26877,0 -12.54994,1.70216 -11.41659,2.85296 -10.27185,3.98424 -8.55679,5.13503 -7.41958,6.83753 -5.71206,8.53936 -3.98939,10.2616 -2.84842,11.96304 -0.57737,14.24552 0,103.12895 z"
       style="fill:#00c800;fill-opacity:1;fill-rule:evenodd;stroke:#00c800;stroke-width:0.57910341;stroke-linecap:butt;stroke-linejoin:round;stroke-miterlimit:10;stroke-dasharray:none;stroke-opacity:1"
       id="path3386" /><path
       d="m 1031.6901,911.70008 103.2817,0 0,-33.61807 -86.7425,8e-5 -3.9893,-0.5696 -3.9894,-1.7128 -2.2894,-3.42184 -1.1408,-5.12696 0.5702,-4.5536 2.278,-3.99528 4.0008,-2.84072 6.2787,-2.85216 58.7753,-17.09008 11.4127,-3.99528 8.5569,-5.12321 6.8491,-6.83983 4.5598,-7.97536 2.2894,-10.25401 1.1409,-12.53272 -0.5701,-10.83087 -2.2781,-9.68056 -3.4302,-7.9784 -5.1303,-6.83721 -6.8492,-5.12583 -9.1309,-2.85264 -10.8462,-1.14112 -110.13466,0 0,33.61576 92.44316,0 5.712,0.5704 3.419,2.28136 1.7113,2.28247 1.1486,3.41417 0,2.85216 -0.5702,3.98392 -2.2894,3.4256 -3.9894,3.41416 -6.2825,2.28248 -65.054,19.94223 -9.7015,3.98384 -7.4158,5.69672 -5.13018,7.40569 -3.43036,8.5488 -2.28178,9.69199 -0.57016,11.38961 1.14089,10.254 1.71137,9.11847 3.997,7.40569 5.13022,6.27016 6.8492,5.1232 9.1309,2.85216 10.85,1.14311 z"
       style="fill:#00c800;fill-opacity:1;fill-rule:evenodd;stroke:#00c800;stroke-width:0.57910341;stroke-linecap:butt;stroke-linejoin:round;stroke-miterlimit:10;stroke-dasharray:none;stroke-opacity:1"
       id="path3388" /><path
       d="m 371.44865,846.73905 45.07686,0 0,-101.98696 -45.07686,0 0,101.98696 z m 0,64.39152 45.07686,0 0,-37.60952 -45.07686,0 0,37.60952 z"
       style="fill:#00c800;fill-opacity:1;fill-rule:evenodd;stroke:#00c800;stroke-width:0.57910341;stroke-linecap:butt;stroke-linejoin:round;stroke-miterlimit:10;stroke-dasharray:none;stroke-opacity:1"
       id="path3390" /><g
       id="g3392" /><g
       id="g3394" /><g
       id="g3396" /><g
       id="g3398" /><g
       id="g3400" /><g
       id="g3402" /><g
       id="g3404" /><g
       id="g3434"><g
         clip-path="url(#clipPath3438)"
         id="g3436"><g
           id="g3442"><g
             clip-path="url(#clipPath3446)"
             id="g3444" /></g></g></g><g
       id="g3462"><g
         clip-path="url(#clipPath3466)"
         id="g3464" /></g><g
       id="g3494"><g
         clip-path="url(#clipPath3498)"
         id="g3496" /></g><g
       id="g3526"><g
         clip-path="url(#clipPath3530)"
         id="g3528" /></g><g
       id="g3534"><g
         clip-path="url(#clipPath3538)"
         id="g3536"><g
           id="g3542"><g
             clip-path="url(#clipPath3546)"
             id="g3544" /></g></g></g><g
       id="g3610"><g
         clip-path="url(#clipPath3614)"
         id="g3612"><g
           id="g3618"><g
             clip-path="url(#clipPath3622)"
             id="g3620" /></g></g></g><g
       id="g3706"><g
         clip-path="url(#clipPath3710)"
         id="g3708"><g
           id="g3714"><g
             clip-path="url(#clipPath3718)"
             id="g3716" /></g></g></g></g></svg>